# xmcd
# 
# Track frame offsets:
#     150
#     11637
#     23960
#     35479
#     46234
#     56061
#     68733
#     77952
#     88654
#     99777
#     110007
#     120842
#     134237
#     146322
#     157330
#     167418
#     183967
#     193987
#     206727
#     219789
#     230685
#     241266
# 
# Disc length: 3503
# 
# Revision: 3
# Processed by: cddbd v1.5.2PL0 Copyright (c) Steve Scherf et al.
# Submitted via: fre:ac v1.0.31
# 
DISCID=340dad16
DTITLE=Vee - Jay - Vee-Jay:  The Definitive Collection Disc 4
DYEAR=2007
DGENRE=R&B
TTITLE0=Christine Kittrell - I'm a Woman
TTITLE1=Jerry Butler - Make it Easy on Yourself
TTITLE2=The Four Seasons - Sherry
TTITLE3=Gene Chandler - Rainbow
TTITLE4=The Pyramids - Shakin' Fit
TTITLE5=Birdlegs and Pauline and their Versatility Birds - Spring
TTITLE6=Aki Aleong and The Nobles - Body Surf
TTITLE7=Betty Everett - You're No Good
TTITLE8=The Original Blind Boys of Alabama - I Can See Everybody's Mother
TTITLE9=Betty Everett - The Shoop Shoop Song (It's in His Kiss)
TTITLE10=Jimmy Hughes - Steal Away
TTITLE11=The Honeycombs - Have I the Right
TTITLE12=Betty Everett - Let it Be Me
TTITLE13=Hoyt Axton - Bring Your Lovin'
TTITLE14=Betty Everett - Getting Mighty Crowded
TTITLE15=The Caravans - Walk Around Heaven All Day
TTITLE16=Gloria Jones - Tainted Love
TTITLE17=Billy Preston - Billy's Bag
TTITLE18=The Dells - Stay in My Corner
TTITLE19=Fred Hughes - Oo Wee Baby, I Love You
TTITLE20=Joe Simon - Let's Do it Over
TTITLE21=Little Richard - I Don't Know What You've Got But it's Got Me
EXTD=
EXTT0=
EXTT1=
EXTT2=
EXTT3=
EXTT4=
EXTT5=
EXTT6=
EXTT7=
EXTT8=
EXTT9=
EXTT10=
EXTT11=
EXTT12=
EXTT13=
EXTT14=
EXTT15=
EXTT16=
EXTT17=
EXTT18=
EXTT19=
EXTT20=
EXTT21=
PLAYORDER=
